<svg xmlns="http://www.w3.org/2000/svg" xml:space="preserve" style="fill-rule:evenodd;clip-rule:evenodd;stroke-linejoin:round;stroke-miterlimit:2" viewBox="0 0 1433 1694"><ellipse cx="716.09" cy="978.14" rx="706.72" ry="705.53" style="fill:#fcde11"/><path d="M361.38 764.02h127.81v41.97H361.38zm581.43 0h127.81v41.97H942.81z" style="fill:#f15b41;fill-rule:nonzero"/><path d="M536.81 564.52h358.38v46.91H536.81z" style="fill:#64c083;fill-rule:nonzero"/><path d="M854.32 57.21a28.6 28.6 0 0 1 28.6-28.6A28.6 28.6 0 0 1 854.32 0a28.6 28.6 0 0 1-28.61 28.6 28.6 28.6 0 0 1 28.6 28.61Zm-67.82 75.03a51.82 51.82 0 0 1 51.8-51.82 51.82 51.82 0 0 1-51.8-51.81 51.82 51.82 0 0 1-51.83 51.81 51.82 51.82 0 0 1 51.82 51.82Z" style="fill:#f15b41;fill-rule:nonzero"/><path d="M1016.53 611.4v142.77h-19.6V630.98H435.2v123.16h-19.6V611.4h600.94Zm123.38 194.65v743.9h-19.63v-724.3H893.1v838.21l-19.6.19v-858h266.41Z" style="fill:#1f1c2e;fill-rule:nonzero"/><path d="M895.22 611.42H536.84V564.5h358.38v46.93Zm-378-66.53v86.13h397.6v-86.13h-397.6ZM361.44 763.98h127.78v41.94H361.44v-41.94Zm-19.63-19.62v81.19h167v-81.19h-167Zm601 19.62h127.82v41.94H942.8v-41.94Zm-19.6-19.62v81.19h167v-81.19h-167ZM376.97 859.77v731.93l-19.6.22V859.77h19.6Zm38.62 0h19.59v761.75h-19.59z" style="fill:#1f1c2e;fill-rule:nonzero"/><path d="M558.69 806.05v857.81l-19.6.19v-838.4H311.91v724.3h-19.63v-743.9h266.4Z" style="fill:#1f1c2e;fill-rule:nonzero"/><path d="M473.81 859.77h19.59v784.88h-19.59zm464.97 0h19.59v784.88h-19.59zm58.22 0h19.59v761.75H997zm77.81 0v731.93l-19.6.22V859.77h19.6ZM706.28 665.3h19.63v1018.53h-19.63zm-88.78 0h19.59v1013.07H617.5zm177.41 0h19.59v1013.07h-19.59zm-78.85-294.53v19.59c-58.06 0-105.28-47.22-105.28-105.25v-65.68h19.6v65.68c0 47.22 38.43 85.66 85.68 85.66Z" style="fill:#1f1c2e;fill-rule:nonzero"/><path d="M907.63 295.46a205.23 205.23 0 0 1-49.82 64.12 160.18 160.18 0 0 0 18.38-72.5v-75.1h53.5a207.68 207.68 0 0 1-22.07 83.48Zm-51.04-8.53a140.6 140.6 0 0 1-41.03 97.5 138.25 138.25 0 0 1-10.65 9.52 140.63 140.63 0 0 1-88.85 31.7c-32.34 0-63.9-11.26-89.4-32.04a140.5 140.5 0 0 1-51.16-106.53V161.8h281.1v125.13ZM796.72 523.7v21.2H634.75v-21.2c36.06-27.12 42.28-66.03 43.19-83.1a160.58 160.58 0 0 0 38.12 4.67c12.66 0 25.22-1.56 37.47-4.54.94 17.16 7.22 55.94 43.19 82.97ZM502.4 211.92h53.5v75.29a158.9 158.9 0 0 0 18.53 72.53 207.8 207.8 0 0 1-72.03-147.82Zm373.78-19.53v-50.18H555.9v50.12h-73.35v9.81a227.46 227.46 0 0 0 118.6 199.78l14.62 8a159.5 159.5 0 0 0 42.69 24.56c.12 7.41-.84 50.07-39.03 76.1a9.77 9.77 0 0 0-4.28 8.1v36.03c0 5.4 4.37 9.78 9.8 9.78H806.5a9.78 9.78 0 0 0 9.81-9.78v-36.04c0-3.25-1.6-6.25-4.28-8.09-38.03-25.94-39.19-67.72-39.06-75.88 15.75-6 30.62-14.5 44.1-25.28l13.84-7.5a224.88 224.88 0 0 0 94.22-97.68 226.73 226.73 0 0 0 24.4-102.03v-9.82H876.2Z" style="fill:#1f1c2e;fill-rule:nonzero"/><path d="M796.72 523.7v21.2H634.75v-21.2c36.06-27.12 42.28-66.03 43.19-83.1a160.58 160.58 0 0 0 38.12 4.67c12.66 0 25.22-1.56 37.47-4.54.94 17.16 7.22 55.94 43.19 82.97Z" style="fill:#fff;fill-rule:nonzero"/><path d="M716.06 390.36c-58.06 0-105.28-47.22-105.28-105.25v-65.69h19.6v65.7c0 47.21 38.43 85.65 85.68 85.65v19.59ZM575.5 161.8v125.28a140.5 140.5 0 0 0 51.16 106.53 141.56 141.56 0 0 0 89.4 32.03c32.32 0 63.88-11.25 88.85-31.69 4-3.24 7.53-6.4 10.65-9.53a140.6 140.6 0 0 0 41.03-97.5V161.8H575.5Z" style="fill:#1376bc;fill-rule:nonzero"/><path d="M996.94 630.98v113.38h-73.72v61.69H873.5v850.16a631.14 631.14 0 0 1-18.44 3.9c-7.25 1.6-14.28 2.75-22.72 4.32-5.87 1.05-11.56 1.8-17.84 2.68V665.3h-19.6v1004.16a472.6 472.6 0 0 1-13.34 1.44l-3.12.4c-4.53.38-9.03.79-14.5.97-1.38.22-2.75.4-5.13.4-5.28.38-10.56.6-16.84.79-1.38.19-2.56.19-5.1.19-3.68.12-7.3.18-10.96.25V665.29h-19.63v1008.6c-3.87-.07-7.9-.13-12.16-.25-1.34 0-2.53 0-4.68-.2-5.5-.18-10.78-.4-16.88-.77-1.56 0-2.94-.19-5.28-.4-4.5-.2-9-.6-12.75-.79l-4.1-.59c-4.43-.41-8.84-.9-13.34-1.47V665.3H617.5v1001.69a294.6 294.6 0 0 1-18.63-2.76c-7.25-1.37-14.5-2.53-21.75-4.12a461.67 461.67 0 0 1-18.43-3.9V806.05H508.8v-61.69h-73.6V630.98h82.03v.04h397.6v-.04h82.12Z" style="fill:#64c083;fill-rule:nonzero"/><path d="M539.1 825.64v825.78c-.91-.22-1.82-.47-2.76-.71a264.5 264.5 0 0 1-11.37-3.32l-8.03-2.15c-.6-.22-1.38-.41-2.35-.78l-4.12-1.2c-5.66-1.84-11.34-3.58-17.06-5.52V859.77h-19.6v770.94c-4.87-1.84-9.9-3.81-15.28-5.88-1-.37-1.97-.6-3.53-1.38a659.28 659.28 0 0 1-19.81-8.37V859.77h-19.6v746.4c-2.03-.97-4.03-1.93-5.87-2.9l-9.4-4.9a358.96 358.96 0 0 1-21.79-11.57l-1.56-.85V859.77h-19.6v714.96a735.97 735.97 0 0 1-45.46-29.68v-719.4h227.18Zm581.18 0v719.4a732.62 732.62 0 0 1-45.47 29.7V859.76h-19.6v726.06l-1.77 1.19c-7.25 3.9-14.29 7.84-21.75 11.56l-8.82 4.5c-2.09 1.1-4.18 2.1-6.28 3.1V859.76H997v755.28a439.61 439.61 0 0 1-20.37 8.63c-1 .55-1.97.78-4.12 1.56-4.69 1.84-9.4 3.68-14.13 5.47V859.77h-19.59v777.97c-5.75 2-11.5 3.84-17.06 5.53l-4.5 1.37c-.6.19-1.38.38-3.13.78l-6.87 1.97a211.19 211.19 0 0 1-11.57 3.32c-.84.21-1.71.4-2.56.62V825.64h227.19Z" style="fill:#f15b41;fill-rule:nonzero"/><path d="M1432.19 977.55c0 228.78-110.78 445.78-296.4 580.25a680.05 680.05 0 0 1-60.97 39.78v.4l-5.88 2.94c-.78.4-1.56.78-2.34 1.19l-2.94 1.56a514.91 514.91 0 0 1-23.16 12.35l-8.8 4.5c-4.7 2.56-9.6 4.72-14.1 6.87l-7.07 3.13a81.33 81.33 0 0 1-6.46 2.75c-5.7 2.75-12.57 5.5-19.41 8.22a29.7 29.7 0 0 1-4.13 1.78c-10 3.9-19.4 7.44-28.8 10.6-8.04 2.93-16.07 5.46-24.32 8.21l-4.31 1.19c-1.38.37-2.94.96-4.7 1.16l-5.68 1.78a239.03 239.03 0 0 1-12.16 3.3c-2.37.82-4.9 1.38-7.46 1.97v.2l-7.63 1.96a956.05 956.05 0 0 1-26.47 5.69c-7.25 1.56-14.72 2.75-21.97 4.12-8.03 1.38-14.68 2.53-21.56 3.32-2.34.4-5.47.81-8.62 1.19h-.78c-1.75.4-3.13.4-4.1.4-5.31.78-11.97 1.57-18.62 2.16l-3.35.37c-4.5.4-9.4.78-14.3 1-1.98.19-3.92.38-6.07.38-4.9.4-10.6.59-16.1.78-1.37.18-3.3.18-5.47.18-7.65.23-14.71.41-21.96.41s-14.13-.18-21.16-.4c-2.97 0-4.9 0-7.06-.19-4.72-.2-10.4-.37-16.1-.78-1.37.18-3.3-.2-5.68-.38-4.5-.22-9.4-.6-13.9-1l-4.13-.59a353.67 353.67 0 0 1-19-1.94s-1.57 0-3.35-.4a82 82 0 0 1-9.6-1.38c-6.27-.6-12.93-1.75-19.8-2.94-8.41-1.56-15.7-2.75-23.13-4.31a956.76 956.76 0 0 1-26.47-5.69l-7.62-2.16c-2.57-.59-5.1-1.15-7.66-1.96a298.9 298.9 0 0 1-11.97-3.31l-6.84-1.98c-.6 0-2.16-.59-3.94-1.18l-3.72-.97c-8.44-2.75-16.66-5.28-24.69-8.22a695.12 695.12 0 0 1-27.65-10.22c-2.53-.96-4.32-1.56-5.69-2.34a262.57 262.57 0 0 1-19.97-8.62s-1.97-.6-3.53-1.38l-2.38-.97-2.34-1.19-3.9-1.75a470.4 470.4 0 0 1-14.13-6.66l-9.4-4.9a532.33 532.33 0 0 1-22.76-12.16l-3.12-1.56c-.6-.4-1.38-.78-2.16-1.19l-5.87-3.34c-22.94-13.5-42.75-26.25-60.97-39.78C110.78 1423.33 0 1206.33 0 977.55c0-298.13 188.77-567.1 465-670.37a208.92 208.92 0 0 0 8.4 17.8C204.06 424.96 19.63 686.86 19.63 977.55c0 216.03 101.65 421.38 272.65 552.97a713.9 713.9 0 0 0 15.5 11.6l4.13 2.93a735.97 735.97 0 0 0 45.47 29.68c3.28 2 6.6 4 10 6l9.6 5.22 1.55.85c7.25 4.12 14.5 8.06 21.78 11.56l9.41 4.9c1.84.98 3.84 1.94 5.88 2.92 2.43 1.15 4.96 2.3 7.43 3.37l3.94 1.97 2.16.96 2.53.97c.78.41 1.37.82 2.15 1 .47.23.91.4 1.38.63a659.28 659.28 0 0 0 19.81 8.37c1.56.78 2.53 1 3.53 1.38 5.38 2.07 10.41 4.04 15.28 5.88a472.1 472.1 0 0 0 12.94 4.72c2.22.8 4.44 1.59 6.66 2.3 5.72 1.95 11.4 3.7 17.06 5.54l4.13 1.19c.96.37 1.75.56 2.34.78l8.03 2.15a264.5 264.5 0 0 0 11.38 3.32c.93.24 1.84.5 2.75.71 3.34.88 6.53 1.6 9.59 2.22l10 2.57a461.67 461.67 0 0 0 18.44 3.9c7.25 1.6 14.5 2.75 21.75 4.12a302.75 302.75 0 0 0 18.62 2.76l1.56.18c3.54.78 6.47 1 9.41 1.38l2.94.18c1.9.23 3.81.48 5.69.7 4.5.56 8.9 1.05 13.34 1.46l4.1.6c3.74.19 8.24.6 12.74.78 2.35.22 3.72.4 5.28.4 6.1.38 11.38.6 16.88.78 2.16.2 3.34.2 4.69.2 4.25.12 8.28.18 12.15.24 6.91.06 13.32.06 19.63 0 3.65-.06 7.28-.12 10.97-.25 2.53 0 3.72 0 5.1-.19 6.27-.18 11.55-.4 16.84-.78 2.37 0 3.75-.18 5.12-.4 5.47-.19 9.97-.6 14.5-.97l3.12-.4a519 519 0 0 0 13.35-1.44c1.94-.25 3.9-.47 5.87-.73l1.2-.18h2.52c2.57-.37 5.5-.78 8.03-1.2.66-.08 1.32-.18 1.97-.24 6.28-.87 11.97-1.63 17.85-2.68 8.43-1.57 15.46-2.73 22.71-4.32a631.14 631.14 0 0 0 18.44-3.9l2.75-.6 7.25-1.97c3.1-.78 6.35-1.53 9.6-2.31.84-.22 1.71-.4 2.56-.62 3.9-.98 7.84-2.16 11.56-3.32l6.88-1.97c1.75-.4 2.53-.6 3.12-.78l4.5-1.37a456.14 456.14 0 0 0 23.53-7.84c4.4-1.5 8.78-3.1 13.13-4.72 4.72-1.79 9.44-3.63 14.12-5.47 2.16-.78 3.13-1 4.13-1.56a457.8 457.8 0 0 0 20.37-8.63c2.16-.78 2.75-1.19 3.53-1.6l2.53-.97 6.29 7.85-4.13-8.81 4.13-1.97c2.4-1.16 4.8-2.25 7.25-3.37 2.09-1 4.18-2 6.28-3.1l8.81-4.5c7.47-3.72 14.5-7.66 21.75-11.56l1.78-1.2 10.19-5.5c3.19-1.86 6.31-3.71 9.4-5.59a732.62 732.62 0 0 0 49.6-32.62c5.22-3.81 10.4-7.65 15.5-11.6 171-131.58 272.66-336.93 272.66-552.96 0-290.69-184.26-552.6-453.79-652.75.38-.97.97-1.75 1.38-2.75 2.53-4.9 4.87-10 7.03-15.1 276.03 103.32 465 372.26 465 670.6Z" style="fill:#1f1c2e;fill-rule:nonzero"/><path d="M502.4 211.93h53.5v75.28a158.9 158.9 0 0 0 18.54 72.53 207.8 207.8 0 0 1-72.03-147.81Zm405.23 83.53a205.23 205.23 0 0 1-49.82 64.12 160.18 160.18 0 0 0 18.38-72.5v-75.1h53.5a207.68 207.68 0 0 1-22.07 83.48Z" style="fill:#fff"/></svg>